<svg width="16" height="16" viewBox="0 0 16 16" fill="none" xmlns="http://www.w3.org/2000/svg">
<path fill-rule="evenodd" clip-rule="evenodd" d="M0 5.55151C0 3.89466 1.34315 2.55151 3 2.55151H12.6C14.2569 2.55151 15.6 3.89466 15.6 5.55151V13C15.6 14.6568 14.2569 16 12.6 16H3C1.34315 16 0 14.6568 0 13V5.55151ZM3 3.75151C2.00589 3.75151 1.2 4.5574 1.2 5.55151V13C1.2 13.9941 2.00589 14.8 3 14.8H12.6C13.5941 14.8 14.4 13.9941 14.4 13V5.55151C14.4 4.5574 13.5941 3.75151 12.6 3.75151H3Z" fill="#B5B8C4"/>
<path fill-rule="evenodd" clip-rule="evenodd" d="M4.19998 0C4.53135 0 4.79998 0.268629 4.79998 0.6V3.15176C4.79998 3.48313 4.53135 3.75176 4.19998 3.75176C3.8686 3.75176 3.59998 3.48313 3.59998 3.15176V0.6C3.59998 0.268629 3.8686 0 4.19998 0Z" fill="#B5B8C4"/>
<path fill-rule="evenodd" clip-rule="evenodd" d="M11.4 0C11.7314 0 12 0.268629 12 0.6V3.15176C12 3.48313 11.7314 3.75176 11.4 3.75176C11.0687 3.75176 10.8 3.48313 10.8 3.15176V0.6C10.8 0.268629 11.0687 0 11.4 0Z" fill="#B5B8C4"/>
<path fill-rule="evenodd" clip-rule="evenodd" d="M0 6.21377C0 5.8824 0.268629 5.61377 0.6 5.61377H15C15.3314 5.61377 15.6 5.8824 15.6 6.21377C15.6 6.54514 15.3314 6.81377 15 6.81377H0.6C0.268629 6.81377 0 6.54514 0 6.21377Z" fill="#B5B8C4"/>
</svg>
