<svg width="16" height="12" viewBox="0 0 16 12" xmlns="http://www.w3.org/2000/svg" fill='red'>
<path d="M3.55556 3.33341H12.4444V8.66675H3.55556V3.33341ZM14.6667 6.00008C14.6667 6.73647 15.2636 7.33341 16 7.33341V10.0001C16 10.7365 15.4031 11.3334 14.6667 11.3334H1.33333C0.596944 11.3334 0 10.7365 0 10.0001V7.33341C0.736389 7.33341 1.33333 6.73647 1.33333 6.00008C1.33333 5.26369 0.736389 4.66675 0 4.66675V2.00008C0 1.26369 0.596944 0.666748 1.33333 0.666748H14.6667C15.4031 0.666748 16 1.26369 16 2.00008V4.66675C15.2636 4.66675 14.6667 5.26369 14.6667 6.00008ZM13.3333 3.11119C13.3333 2.743 13.0349 2.44453 12.6667 2.44453H3.33333C2.96514 2.44453 2.66667 2.743 2.66667 3.11119V8.88897C2.66667 9.25716 2.96514 9.55564 3.33333 9.55564H12.6667C13.0349 9.55564 13.3333 9.25716 13.3333 8.88897V3.11119Z" fill='#9FA2B4'/>
</svg>
